# xmcd
#
# Track frame offsets:
# 150
# 18495
# 39225
# 50606
# 62766
# 78619
# 94564
# 112026
# 122435
# 139660
# 156244
# 161925
# 172833
# 187577
# 200881
# 222614
# 239758
# 259853
# 278759
# 292871
# 314886
# 336987
#
# Disc length: 4748 seconds
#
# Revision: 0
# Processed by: cddbd v1.4PL0 Copyright (c) Steve Scherf et al.
# Submitted via: Audion 3.0.2 (http://www.panic.com/audion/)
#
DISCID=4d128a16
DTITLE=Mix9 - fgzfdg
DYEAR=1900
DGENRE=
TTITLE0=kygyuf
TTITLE1=kjkfj
TTITLE2=kjkfjgh
TTITLE3=fgg
TTITLE4=jfgh
TTITLE5=ghfhg
TTITLE6=kghfg
TTITLE7=hgffhg
TTITLE8=ghfhg
TTITLE9=ghfhg
TTITLE10=hgfhg
TTITLE11=hgffhg
TTITLE12=ghf
TTITLE13=iuyiu
TTITLE14=iuoyoiu
TTITLE15=oiuyoiu
TTITLE16=oiuyyuio
TTITLE17=iouyuoiy
TTITLE18=bfb
TTITLE19=uoiyiuo
TTITLE20=oiuyiu
TTITLE21=ioyyiuiuy
EXTD=
EXTT0=
EXTT1=
EXTT2=
EXTT3=
EXTT4=
EXTT5=
EXTT6=
EXTT7=
EXTT8=
EXTT9=
EXTT10=
EXTT11=
EXTT12=
EXTT13=
EXTT14=
EXTT15=
EXTT16=
EXTT17=
EXTT18=
EXTT19=
EXTT20=
EXTT21=
PLAYORDER=
